<svg xmlns="http://www.w3.org/2000/svg" viewBox="0 0 64 64" width="64" height="64"><g transform="translate(-6 26) rotate(0) scale(1 1) translate(0 0)"><path d="M4,30 C4.3,27.3 8.7,25.3 12,24 C15.3,22.7 20,22 24,22 C28,22 32.7,22.7 36,24 C39.3,25.3 43.7,27.3 44,30 C44.3,32.7 41.3,37.7 38,40 C34.7,42.3 28.7,44 24,44 C19.3,44 13.3,42.3 10,40 C6.7,37.7 3.7,32.7 4,30 Z" fill="#f3e7cc" stroke="#1c2229" stroke-width="2.2" stroke-linecap="round" stroke-linejoin="round"/><path d="M6,26 C5.7,25 7,18.7 10,16 C13,13.3 19.3,10.3 24,10 C28.7,9.7 34.8,11.7 38,14 C41.2,16.3 43.3,22.7 43,24 C42.7,25.3 39.2,22.7 36,22 C32.8,21.3 28,20 24,20 C20,20 15,21 12,22 C9,23 6.3,27 6,26 Z" fill="#f3e7cc" stroke="#1c2229" stroke-width="2.2" stroke-linecap="round" stroke-linejoin="round"/><path d="M19,26 A5,5 0 1,0 29,26 A5,5 0 1,0 19,26 Z" fill="#f3e7cc" stroke="#1c2229" stroke-width="1.4" stroke-linecap="round" stroke-linejoin="round"/></g><g transform="translate(23.6 31.6) rotate(0) scale(0.8 0.8) translate(0 0)"><path d="M4,30 C4.3,27.3 8.7,25.3 12,24 C15.3,22.7 20,22 24,22 C28,22 32.7,22.7 36,24 C39.3,25.3 43.7,27.3 44,30 C44.3,32.7 41.3,37.7 38,40 C34.7,42.3 28.7,44 24,44 C19.3,44 13.3,42.3 10,40 C6.7,37.7 3.7,32.7 4,30 Z" fill="#f3e7cc" stroke="#1c2229" stroke-width="2.2" stroke-linecap="round" stroke-linejoin="round"/><path d="M6,26 C5.7,25 7,18.7 10,16 C13,13.3 19.3,10.3 24,10 C28.7,9.7 34.8,11.7 38,14 C41.2,16.3 43.3,22.7 43,24 C42.7,25.3 39.2,22.7 36,22 C32.8,21.3 28,20 24,20 C20,20 15,21 12,22 C9,23 6.3,27 6,26 Z" fill="#f3e7cc" stroke="#1c2229" stroke-width="2.2" stroke-linecap="round" stroke-linejoin="round"/><path d="M19,26 A5,5 0 1,0 29,26 A5,5 0 1,0 19,26 Z" fill="#f3e7cc" stroke="#1c2229" stroke-width="1.4" stroke-linecap="round" stroke-linejoin="round"/></g><g transform="translate(15.2 21.2) rotate(0) scale(0.7 0.7) translate(0 0)"><path d="M4,30 C4.3,27.3 8.7,25.3 12,24 C15.3,22.7 20,22 24,22 C28,22 32.7,22.7 36,24 C39.3,25.3 43.7,27.3 44,30 C44.3,32.7 41.3,37.7 38,40 C34.7,42.3 28.7,44 24,44 C19.3,44 13.3,42.3 10,40 C6.7,37.7 3.7,32.7 4,30 Z" fill="#f3e7cc" stroke="#1c2229" stroke-width="2.2" stroke-linecap="round" stroke-linejoin="round"/><path d="M6,26 C5.7,25 7,18.7 10,16 C13,13.3 19.3,10.3 24,10 C28.7,9.7 34.8,11.7 38,14 C41.2,16.3 43.3,22.7 43,24 C42.7,25.3 39.2,22.7 36,22 C32.8,21.3 28,20 24,20 C20,20 15,21 12,22 C9,23 6.3,27 6,26 Z" fill="#f3e7cc" stroke="#1c2229" stroke-width="2.2" stroke-linecap="round" stroke-linejoin="round"/><path d="M19,26 A5,5 0 1,0 29,26 A5,5 0 1,0 19,26 Z" fill="#f3e7cc" stroke="#1c2229" stroke-width="1.4" stroke-linecap="round" stroke-linejoin="round"/></g></svg>
