<svg xmlns="http://www.w3.org/2000/svg" viewBox="0 0 48 48" width="48" height="48"><path d="M3,40 C0.3,37.5 4.5,32.3 8,30 C11.5,27.7 18.7,26 24,26 C29.3,26 36.5,27.7 40,30 C43.5,32.3 47.7,37.5 45,40 C42.3,42.5 31,45 24,45 C17,45 5.7,42.5 3,40 Z" fill="#e2b43e" stroke="#1c2229" stroke-width="2.2" stroke-linecap="round" stroke-linejoin="round"/><path d="M11,30 A5,5.8 0 1,0 21,30 A5,5.8 0 1,0 11,30 Z" fill="#f3e7cc" stroke="#1c2229" stroke-width="1.6" stroke-linecap="round" stroke-linejoin="round"/><path d="M20,27.5 A5,5.8 0 1,0 30,27.5 A5,5.8 0 1,0 20,27.5 Z" fill="#f3e7cc" stroke="#1c2229" stroke-width="1.6" stroke-linecap="round" stroke-linejoin="round"/><path d="M28,30.5 A5,5.8 0 1,0 38,30.5 A5,5.8 0 1,0 28,30.5 Z" fill="#f3e7cc" stroke="#1c2229" stroke-width="1.6" stroke-linecap="round" stroke-linejoin="round"/><path d="M24,4 V16 M18,10 H30" fill="none" stroke="#5b8a3a" stroke-width="3" stroke-linecap="round" stroke-linejoin="round"/></svg>
