<svg xmlns="http://www.w3.org/2000/svg" viewBox="0 0 48 48" width="48" height="48"><path d="M9,30 A7,7 0 1,0 23,30 A7,7 0 1,0 9,30 Z" fill="#f3e7cc" stroke="#1c2229" stroke-width="1.9" stroke-linecap="round" stroke-linejoin="round"/><path d="M14.1,30.5 A2.4,2.4 0 1,0 18.9,30.5 A2.4,2.4 0 1,0 14.1,30.5 Z" fill="#d4577f" fill-opacity="0.7"/><path d="M23,34 A6,6 0 1,0 35,34 A6,6 0 1,0 23,34 Z" fill="#f3e7cc" stroke="#1c2229" stroke-width="1.9" stroke-linecap="round" stroke-linejoin="round"/><path d="M27.4,34.5 A2.1,2.1 0 1,0 31.6,34.5 A2.1,2.1 0 1,0 27.4,34.5 Z" fill="#d4577f" fill-opacity="0.7"/><path d="M18.5,20 A5.5,5.5 0 1,0 29.5,20 A5.5,5.5 0 1,0 18.5,20 Z" fill="#f3e7cc" stroke="#1c2229" stroke-width="1.9" stroke-linecap="round" stroke-linejoin="round"/><path d="M22.6,20.5 A1.9,1.9 0 1,0 26.4,20.5 A1.9,1.9 0 1,0 22.6,20.5 Z" fill="#d4577f" fill-opacity="0.7"/><path d="M31,22 A4,4 0 1,0 39,22 A4,4 0 1,0 31,22 Z" fill="#f3e7cc" stroke="#1c2229" stroke-width="1.9" stroke-linecap="round" stroke-linejoin="round"/><path d="M34.1,22.5 A1.4,1.4 0 1,0 36.9,22.5 A1.4,1.4 0 1,0 34.1,22.5 Z" fill="#d4577f" fill-opacity="0.7"/><path d="M40,3 L41.4,7.6 L46,9 L41.4,10.4 L40,15 L38.6,10.4 L34,9 L38.6,7.6 Z" fill="#f3e7cc" stroke="#1c2229" stroke-width="1.4" stroke-linecap="round" stroke-linejoin="round"/></svg>
