<svg xmlns="http://www.w3.org/2000/svg" viewBox="0 0 48 48" width="48" height="48"><path d="M30,4 C33,4.2 35,8.7 37,12 C39,15.3 41.7,20 42,24 C42.3,28 41.3,32.7 39,36 C36.7,39.3 32.2,42.8 28,44 C23.8,45.2 17.7,44.5 14,43 C10.3,41.5 6.8,38.3 6,35 C5.2,31.7 6.8,27 9,23 C11.2,19 15.5,14.2 19,11 C22.5,7.8 27,3.8 30,4 Z" fill="#d9803a" stroke="#1c2229" stroke-width="2.7" stroke-linecap="round" stroke-linejoin="round"/><path d="M12,17 C14,17.3 20,19.7 24,19 C28,18.3 34,14 36,13" fill="none" stroke="#1c2229" stroke-width="2.2" stroke-linecap="round" stroke-linejoin="round"/><path d="M8,27 C10.7,27.5 18.5,30.5 24,30 C29.5,29.5 38.2,25 41,24" fill="none" stroke="#1c2229" stroke-width="2.2" stroke-linecap="round" stroke-linejoin="round"/><path d="M8,36 C10.3,36.5 16.7,39.5 22,39 C27.3,38.5 37,34 40,33" fill="none" stroke="#1c2229" stroke-width="2.2" stroke-linecap="round" stroke-linejoin="round"/><path d="M17.8,16.2 C18.2,16.3 18.8,16.2 19.4,16.3 C20.1,16.4 21,16.5 21.8,16.6 C22.6,16.7 23.6,16.8 24.3,16.9 C24.9,16.9 25.9,17.2 25.9,17 C25.9,16.8 25.1,15.9 24.5,15.5 C23.9,15.2 22.9,15.1 22.2,14.9 C21.4,14.7 20.5,14.5 19.8,14.3 C19.2,14.1 18.7,13.6 18.2,13.8 C17.7,14 16.9,15 16.9,15.4 C16.8,15.8 17.4,16 17.8,16.2 Z" fill="#f3e7cc" fill-opacity="0.6"/><path d="M14.8,26.2 C15.4,26.4 16.7,26.3 17.5,26.4 C18.2,26.5 18.7,26.5 19.4,26.6 C20,26.7 20.7,26.8 21.4,26.8 C22,26.9 22.7,27 23.4,27.1 C24,27.1 24.5,27.2 25.3,27.3 C26,27.3 27.9,27.7 27.9,27.5 C28,27.3 26.2,26.2 25.5,25.9 C24.7,25.6 24.3,25.7 23.6,25.6 C23,25.4 22.3,25.3 21.6,25.2 C21,25 20.3,24.9 19.6,24.8 C19,24.6 18.5,24.6 17.8,24.4 C17.1,24.2 15.8,23.6 15.2,23.8 C14.5,24 13.9,25 13.9,25.4 C13.8,25.8 14.2,26 14.8,26.2 Z" fill="#f3e7cc" fill-opacity="0.6"/><path d="M10,38 A7,4.6 0 1,0 24,38 A7,4.6 0 1,0 10,38 Z" fill="#1c2229" stroke="#1c2229" stroke-width="1.9" stroke-linecap="round" stroke-linejoin="round"/><path d="M12.8,37.4 A4.2,2.4 0 1,0 21.2,37.4 A4.2,2.4 0 1,0 12.8,37.4 Z" fill="#1c2229"/></svg>
