<svg xmlns="http://www.w3.org/2000/svg" viewBox="0 0 48 48" width="48" height="48"><defs><linearGradient id="piecenestg0" gradientUnits="userSpaceOnUse" x1="0" y1="26" x2="0" y2="46"><stop offset="0" stop-color="#f3dfb0"/><stop offset="1" stop-color="#b99555"/></linearGradient><radialGradient id="piecenestg1" gradientUnits="userSpaceOnUse" cx="14.5" cy="28" r="7"><stop offset="0" stop-color="#ffffff"/><stop offset="1" stop-color="#d9d2c0"/></radialGradient><radialGradient id="piecenestg2" gradientUnits="userSpaceOnUse" cx="23.5" cy="25.5" r="7"><stop offset="0" stop-color="#ffffff"/><stop offset="1" stop-color="#d9d2c0"/></radialGradient><radialGradient id="piecenestg3" gradientUnits="userSpaceOnUse" cx="31.5" cy="28.5" r="7"><stop offset="0" stop-color="#ffffff"/><stop offset="1" stop-color="#d9d2c0"/></radialGradient></defs><path d="M3,40 C0.3,37.5 4.5,32.3 8,30 C11.5,27.7 18.7,26 24,26 C29.3,26 36.5,27.7 40,30 C43.5,32.3 47.7,37.5 45,40 C42.3,42.5 31,45 24,45 C17,45 5.7,42.5 3,40 Z" fill="url(#piecenestg0)" stroke="#6a5226" stroke-width="1.6" stroke-linecap="round" stroke-linejoin="round"/><path d="M11,30 A5,5.8 0 1,0 21,30 A5,5.8 0 1,0 11,30 Z" fill="url(#piecenestg1)" stroke="#6a5226" stroke-width="1.2" stroke-linecap="round" stroke-linejoin="round"/><path d="M20,27.5 A5,5.8 0 1,0 30,27.5 A5,5.8 0 1,0 20,27.5 Z" fill="url(#piecenestg2)" stroke="#6a5226" stroke-width="1.2" stroke-linecap="round" stroke-linejoin="round"/><path d="M28,30.5 A5,5.8 0 1,0 38,30.5 A5,5.8 0 1,0 28,30.5 Z" fill="url(#piecenestg3)" stroke="#6a5226" stroke-width="1.2" stroke-linecap="round" stroke-linejoin="round"/><path d="M4,40 C2,38.7 8.7,36.8 12,36 C15.3,35.2 20,35 24,35 C28,35 32.7,35.2 36,36 C39.3,36.8 46,38.7 44,40 C42,41.3 30.7,44 24,44 C17.3,44 6,41.3 4,40 Z" fill="#d7bb7a"/><path d="M9.1,40 A0.9,0.9 0 1,0 10.9,40 A0.9,0.9 0 1,0 9.1,40 Z" fill="#8a6c34" fill-opacity="0.7"/><path d="M17.1,40 A0.9,0.9 0 1,0 18.9,40 A0.9,0.9 0 1,0 17.1,40 Z" fill="#8a6c34" fill-opacity="0.7"/><path d="M29.1,40 A0.9,0.9 0 1,0 30.9,40 A0.9,0.9 0 1,0 29.1,40 Z" fill="#8a6c34" fill-opacity="0.7"/><path d="M37.1,40 A0.9,0.9 0 1,0 38.9,40 A0.9,0.9 0 1,0 37.1,40 Z" fill="#8a6c34" fill-opacity="0.7"/></svg>
