<svg xmlns="http://www.w3.org/2000/svg" viewBox="0 0 120 120" width="120" height="120"><defs><clipPath id="sardinesc0"><path d="M31,0 C31,-2.5 25.5,-5.9 21,-7.5 C16.5,-9.1 9.5,-9.5 4,-9.5 C-1.5,-9.5 -7.2,-8.6 -12,-7.5 C-16.8,-6.4 -22.2,-4.2 -25,-3 C-27.8,-1.8 -29,-1 -29,0 C-29,1 -27.8,1.8 -25,3 C-22.2,4.2 -16.8,6.4 -12,7.5 C-7.2,8.6 -1.5,9.5 4,9.5 C9.5,9.5 16.5,9.1 21,7.5 C25.5,5.9 31,2.5 31,0 Z"/></clipPath><clipPath id="sardinesc1"><path d="M31,0 C31,-2.5 25.5,-5.9 21,-7.5 C16.5,-9.1 9.5,-9.5 4,-9.5 C-1.5,-9.5 -7.2,-8.6 -12,-7.5 C-16.8,-6.4 -22.2,-4.2 -25,-3 C-27.8,-1.8 -29,-1 -29,0 C-29,1 -27.8,1.8 -25,3 C-22.2,4.2 -16.8,6.4 -12,7.5 C-7.2,8.6 -1.5,9.5 4,9.5 C9.5,9.5 16.5,9.1 21,7.5 C25.5,5.9 31,2.5 31,0 Z"/></clipPath><clipPath id="sardinesc2"><path d="M31,0 C31,-2.5 25.5,-5.9 21,-7.5 C16.5,-9.1 9.5,-9.5 4,-9.5 C-1.5,-9.5 -7.2,-8.6 -12,-7.5 C-16.8,-6.4 -22.2,-4.2 -25,-3 C-27.8,-1.8 -29,-1 -29,0 C-29,1 -27.8,1.8 -25,3 C-22.2,4.2 -16.8,6.4 -12,7.5 C-7.2,8.6 -1.5,9.5 4,9.5 C9.5,9.5 16.5,9.1 21,7.5 C25.5,5.9 31,2.5 31,0 Z"/></clipPath></defs><g transform="translate(58 34) rotate(0) scale(1.1 1.1) translate(0 0)"><path d="M-24,0 C-24,-2.3 -29.7,-5.2 -32,-7 C-34.3,-8.8 -37.5,-11.7 -38,-11 C-38.5,-10.3 -35.7,-4.8 -35,-3 C-34.3,-1.2 -34,-1 -34,0 C-34,1 -34.3,1.2 -35,3 C-35.7,4.8 -38.5,10.3 -38,11 C-37.5,11.7 -34.3,8.8 -32,7 C-29.7,5.2 -24,2.3 -24,0 Z" fill="#1c2229"/><path d="M31,0 C31,-2.5 25.5,-5.9 21,-7.5 C16.5,-9.1 9.5,-9.5 4,-9.5 C-1.5,-9.5 -7.2,-8.6 -12,-7.5 C-16.8,-6.4 -22.2,-4.2 -25,-3 C-27.8,-1.8 -29,-1 -29,0 C-29,1 -27.8,1.8 -25,3 C-22.2,4.2 -16.8,6.4 -12,7.5 C-7.2,8.6 -1.5,9.5 4,9.5 C9.5,9.5 16.5,9.1 21,7.5 C25.5,5.9 31,2.5 31,0 Z" fill="#6f9cc4" stroke="#1c2229" stroke-width="2.6" stroke-linecap="round" stroke-linejoin="round"/><g transform="translate(0 0) rotate(0) scale(1 1) translate(0 0)"><g clip-path="url(#sardinesc0)"><path d="M-40,-20 H40 V-3 Q0,-5 -40,-2 Z" fill="#1c2229"/><path d="M-40,20 H40 V3.5 Q0,5 -40,2 Z" fill="#f3e7cc"/><path d="M-18,-3 Q-15.5,0 -18,3" fill="none" stroke="#f3e7cc" stroke-width="1.1" stroke-linecap="round" stroke-linejoin="round"/><path d="M-13,-3 Q-10.5,0 -13,3" fill="none" stroke="#f3e7cc" stroke-width="1.1" stroke-linecap="round" stroke-linejoin="round"/><path d="M-8,-3 Q-5.5,0 -8,3" fill="none" stroke="#f3e7cc" stroke-width="1.1" stroke-linecap="round" stroke-linejoin="round"/><path d="M-3,-3 Q-0.5,0 -3,3" fill="none" stroke="#f3e7cc" stroke-width="1.1" stroke-linecap="round" stroke-linejoin="round"/><path d="M2,-3 Q4.5,0 2,3" fill="none" stroke="#f3e7cc" stroke-width="1.1" stroke-linecap="round" stroke-linejoin="round"/><path d="M7,-3 Q9.5,0 7,3" fill="none" stroke="#f3e7cc" stroke-width="1.1" stroke-linecap="round" stroke-linejoin="round"/><path d="M12,-3 Q14.5,0 12,3" fill="none" stroke="#f3e7cc" stroke-width="1.1" stroke-linecap="round" stroke-linejoin="round"/><path d="M17,-3 Q19.5,0 17,3" fill="none" stroke="#f3e7cc" stroke-width="1.1" stroke-linecap="round" stroke-linejoin="round"/><path d="M-16,-8 L-14,-4" fill="none" stroke="#f3e7cc" stroke-width="0.9" stroke-linecap="round" stroke-linejoin="round" stroke-opacity="0.7"/><path d="M-12,-8 L-10,-4" fill="none" stroke="#f3e7cc" stroke-width="0.9" stroke-linecap="round" stroke-linejoin="round" stroke-opacity="0.7"/><path d="M-8,-8 L-6,-4" fill="none" stroke="#f3e7cc" stroke-width="0.9" stroke-linecap="round" stroke-linejoin="round" stroke-opacity="0.7"/><path d="M-4,-8 L-2,-4" fill="none" stroke="#f3e7cc" stroke-width="0.9" stroke-linecap="round" stroke-linejoin="round" stroke-opacity="0.7"/><path d="M0,-8 L2,-4" fill="none" stroke="#f3e7cc" stroke-width="0.9" stroke-linecap="round" stroke-linejoin="round" stroke-opacity="0.7"/><path d="M4,-8 L6,-4" fill="none" stroke="#f3e7cc" stroke-width="0.9" stroke-linecap="round" stroke-linejoin="round" stroke-opacity="0.7"/><path d="M8,-8 L10,-4" fill="none" stroke="#f3e7cc" stroke-width="0.9" stroke-linecap="round" stroke-linejoin="round" stroke-opacity="0.7"/><path d="M12,-8 L14,-4" fill="none" stroke="#f3e7cc" stroke-width="0.9" stroke-linecap="round" stroke-linejoin="round" stroke-opacity="0.7"/><path d="M16,-8 L18,-4" fill="none" stroke="#f3e7cc" stroke-width="0.9" stroke-linecap="round" stroke-linejoin="round" stroke-opacity="0.7"/><path d="M20,-8 L22,-4" fill="none" stroke="#f3e7cc" stroke-width="0.9" stroke-linecap="round" stroke-linejoin="round" stroke-opacity="0.7"/></g></g><path d="M19.2,-1.2 A2.8,2.8 0 1,0 24.8,-1.2 A2.8,2.8 0 1,0 19.2,-1.2 Z" fill="#f3e7cc" stroke="#1c2229" stroke-width="1.4" stroke-linecap="round" stroke-linejoin="round"/><path d="M20.9,-1.1 A1.5,1.5 0 1,0 23.8,-1.1 A1.5,1.5 0 1,0 20.9,-1.1 Z" fill="#1c2229"/><path d="M22.4,-1.8 A0.5,0.5 0 1,0 23.3,-1.8 A0.5,0.5 0 1,0 22.4,-1.8 Z" fill="#f3e7cc"/></g><g transform="translate(42 62) rotate(0) scale(1.1 1.1) translate(0 0)"><path d="M-24,0 C-24,-2.3 -29.7,-5.2 -32,-7 C-34.3,-8.8 -37.5,-11.7 -38,-11 C-38.5,-10.3 -35.7,-4.8 -35,-3 C-34.3,-1.2 -34,-1 -34,0 C-34,1 -34.3,1.2 -35,3 C-35.7,4.8 -38.5,10.3 -38,11 C-37.5,11.7 -34.3,8.8 -32,7 C-29.7,5.2 -24,2.3 -24,0 Z" fill="#1c2229"/><path d="M31,0 C31,-2.5 25.5,-5.9 21,-7.5 C16.5,-9.1 9.5,-9.5 4,-9.5 C-1.5,-9.5 -7.2,-8.6 -12,-7.5 C-16.8,-6.4 -22.2,-4.2 -25,-3 C-27.8,-1.8 -29,-1 -29,0 C-29,1 -27.8,1.8 -25,3 C-22.2,4.2 -16.8,6.4 -12,7.5 C-7.2,8.6 -1.5,9.5 4,9.5 C9.5,9.5 16.5,9.1 21,7.5 C25.5,5.9 31,2.5 31,0 Z" fill="#6f9cc4" stroke="#1c2229" stroke-width="2.6" stroke-linecap="round" stroke-linejoin="round"/><g transform="translate(0 0) rotate(0) scale(1 1) translate(0 0)"><g clip-path="url(#sardinesc1)"><path d="M-40,-20 H40 V-3 Q0,-5 -40,-2 Z" fill="#1c2229"/><path d="M-40,20 H40 V3.5 Q0,5 -40,2 Z" fill="#f3e7cc"/><path d="M-18,-3 Q-15.5,0 -18,3" fill="none" stroke="#f3e7cc" stroke-width="1.1" stroke-linecap="round" stroke-linejoin="round"/><path d="M-13,-3 Q-10.5,0 -13,3" fill="none" stroke="#f3e7cc" stroke-width="1.1" stroke-linecap="round" stroke-linejoin="round"/><path d="M-8,-3 Q-5.5,0 -8,3" fill="none" stroke="#f3e7cc" stroke-width="1.1" stroke-linecap="round" stroke-linejoin="round"/><path d="M-3,-3 Q-0.5,0 -3,3" fill="none" stroke="#f3e7cc" stroke-width="1.1" stroke-linecap="round" stroke-linejoin="round"/><path d="M2,-3 Q4.5,0 2,3" fill="none" stroke="#f3e7cc" stroke-width="1.1" stroke-linecap="round" stroke-linejoin="round"/><path d="M7,-3 Q9.5,0 7,3" fill="none" stroke="#f3e7cc" stroke-width="1.1" stroke-linecap="round" stroke-linejoin="round"/><path d="M12,-3 Q14.5,0 12,3" fill="none" stroke="#f3e7cc" stroke-width="1.1" stroke-linecap="round" stroke-linejoin="round"/><path d="M17,-3 Q19.5,0 17,3" fill="none" stroke="#f3e7cc" stroke-width="1.1" stroke-linecap="round" stroke-linejoin="round"/><path d="M-16,-8 L-14,-4" fill="none" stroke="#f3e7cc" stroke-width="0.9" stroke-linecap="round" stroke-linejoin="round" stroke-opacity="0.7"/><path d="M-12,-8 L-10,-4" fill="none" stroke="#f3e7cc" stroke-width="0.9" stroke-linecap="round" stroke-linejoin="round" stroke-opacity="0.7"/><path d="M-8,-8 L-6,-4" fill="none" stroke="#f3e7cc" stroke-width="0.9" stroke-linecap="round" stroke-linejoin="round" stroke-opacity="0.7"/><path d="M-4,-8 L-2,-4" fill="none" stroke="#f3e7cc" stroke-width="0.9" stroke-linecap="round" stroke-linejoin="round" stroke-opacity="0.7"/><path d="M0,-8 L2,-4" fill="none" stroke="#f3e7cc" stroke-width="0.9" stroke-linecap="round" stroke-linejoin="round" stroke-opacity="0.7"/><path d="M4,-8 L6,-4" fill="none" stroke="#f3e7cc" stroke-width="0.9" stroke-linecap="round" stroke-linejoin="round" stroke-opacity="0.7"/><path d="M8,-8 L10,-4" fill="none" stroke="#f3e7cc" stroke-width="0.9" stroke-linecap="round" stroke-linejoin="round" stroke-opacity="0.7"/><path d="M12,-8 L14,-4" fill="none" stroke="#f3e7cc" stroke-width="0.9" stroke-linecap="round" stroke-linejoin="round" stroke-opacity="0.7"/><path d="M16,-8 L18,-4" fill="none" stroke="#f3e7cc" stroke-width="0.9" stroke-linecap="round" stroke-linejoin="round" stroke-opacity="0.7"/><path d="M20,-8 L22,-4" fill="none" stroke="#f3e7cc" stroke-width="0.9" stroke-linecap="round" stroke-linejoin="round" stroke-opacity="0.7"/></g></g><path d="M19.2,-1.2 A2.8,2.8 0 1,0 24.8,-1.2 A2.8,2.8 0 1,0 19.2,-1.2 Z" fill="#f3e7cc" stroke="#1c2229" stroke-width="1.4" stroke-linecap="round" stroke-linejoin="round"/><path d="M20.9,-1.1 A1.5,1.5 0 1,0 23.8,-1.1 A1.5,1.5 0 1,0 20.9,-1.1 Z" fill="#1c2229"/><path d="M22.4,-1.8 A0.5,0.5 0 1,0 23.3,-1.8 A0.5,0.5 0 1,0 22.4,-1.8 Z" fill="#f3e7cc"/></g><g transform="translate(70 88) rotate(0) scale(1 1) translate(0 0)"><path d="M-24,0 C-24,-2.3 -29.7,-5.2 -32,-7 C-34.3,-8.8 -37.5,-11.7 -38,-11 C-38.5,-10.3 -35.7,-4.8 -35,-3 C-34.3,-1.2 -34,-1 -34,0 C-34,1 -34.3,1.2 -35,3 C-35.7,4.8 -38.5,10.3 -38,11 C-37.5,11.7 -34.3,8.8 -32,7 C-29.7,5.2 -24,2.3 -24,0 Z" fill="#1c2229"/><path d="M31,0 C31,-2.5 25.5,-5.9 21,-7.5 C16.5,-9.1 9.5,-9.5 4,-9.5 C-1.5,-9.5 -7.2,-8.6 -12,-7.5 C-16.8,-6.4 -22.2,-4.2 -25,-3 C-27.8,-1.8 -29,-1 -29,0 C-29,1 -27.8,1.8 -25,3 C-22.2,4.2 -16.8,6.4 -12,7.5 C-7.2,8.6 -1.5,9.5 4,9.5 C9.5,9.5 16.5,9.1 21,7.5 C25.5,5.9 31,2.5 31,0 Z" fill="#6f9cc4" stroke="#1c2229" stroke-width="2.6" stroke-linecap="round" stroke-linejoin="round"/><g transform="translate(0 0) rotate(0) scale(1 1) translate(0 0)"><g clip-path="url(#sardinesc2)"><path d="M-40,-20 H40 V-3 Q0,-5 -40,-2 Z" fill="#1c2229"/><path d="M-40,20 H40 V3.5 Q0,5 -40,2 Z" fill="#f3e7cc"/><path d="M-18,-3 Q-15.5,0 -18,3" fill="none" stroke="#f3e7cc" stroke-width="1.1" stroke-linecap="round" stroke-linejoin="round"/><path d="M-13,-3 Q-10.5,0 -13,3" fill="none" stroke="#f3e7cc" stroke-width="1.1" stroke-linecap="round" stroke-linejoin="round"/><path d="M-8,-3 Q-5.5,0 -8,3" fill="none" stroke="#f3e7cc" stroke-width="1.1" stroke-linecap="round" stroke-linejoin="round"/><path d="M-3,-3 Q-0.5,0 -3,3" fill="none" stroke="#f3e7cc" stroke-width="1.1" stroke-linecap="round" stroke-linejoin="round"/><path d="M2,-3 Q4.5,0 2,3" fill="none" stroke="#f3e7cc" stroke-width="1.1" stroke-linecap="round" stroke-linejoin="round"/><path d="M7,-3 Q9.5,0 7,3" fill="none" stroke="#f3e7cc" stroke-width="1.1" stroke-linecap="round" stroke-linejoin="round"/><path d="M12,-3 Q14.5,0 12,3" fill="none" stroke="#f3e7cc" stroke-width="1.1" stroke-linecap="round" stroke-linejoin="round"/><path d="M17,-3 Q19.5,0 17,3" fill="none" stroke="#f3e7cc" stroke-width="1.1" stroke-linecap="round" stroke-linejoin="round"/><path d="M-16,-8 L-14,-4" fill="none" stroke="#f3e7cc" stroke-width="0.9" stroke-linecap="round" stroke-linejoin="round" stroke-opacity="0.7"/><path d="M-12,-8 L-10,-4" fill="none" stroke="#f3e7cc" stroke-width="0.9" stroke-linecap="round" stroke-linejoin="round" stroke-opacity="0.7"/><path d="M-8,-8 L-6,-4" fill="none" stroke="#f3e7cc" stroke-width="0.9" stroke-linecap="round" stroke-linejoin="round" stroke-opacity="0.7"/><path d="M-4,-8 L-2,-4" fill="none" stroke="#f3e7cc" stroke-width="0.9" stroke-linecap="round" stroke-linejoin="round" stroke-opacity="0.7"/><path d="M0,-8 L2,-4" fill="none" stroke="#f3e7cc" stroke-width="0.9" stroke-linecap="round" stroke-linejoin="round" stroke-opacity="0.7"/><path d="M4,-8 L6,-4" fill="none" stroke="#f3e7cc" stroke-width="0.9" stroke-linecap="round" stroke-linejoin="round" stroke-opacity="0.7"/><path d="M8,-8 L10,-4" fill="none" stroke="#f3e7cc" stroke-width="0.9" stroke-linecap="round" stroke-linejoin="round" stroke-opacity="0.7"/><path d="M12,-8 L14,-4" fill="none" stroke="#f3e7cc" stroke-width="0.9" stroke-linecap="round" stroke-linejoin="round" stroke-opacity="0.7"/><path d="M16,-8 L18,-4" fill="none" stroke="#f3e7cc" stroke-width="0.9" stroke-linecap="round" stroke-linejoin="round" stroke-opacity="0.7"/><path d="M20,-8 L22,-4" fill="none" stroke="#f3e7cc" stroke-width="0.9" stroke-linecap="round" stroke-linejoin="round" stroke-opacity="0.7"/></g></g><path d="M19.2,-1.2 A2.8,2.8 0 1,0 24.8,-1.2 A2.8,2.8 0 1,0 19.2,-1.2 Z" fill="#f3e7cc" stroke="#1c2229" stroke-width="1.4" stroke-linecap="round" stroke-linejoin="round"/><path d="M20.9,-1.1 A1.5,1.5 0 1,0 23.8,-1.1 A1.5,1.5 0 1,0 20.9,-1.1 Z" fill="#1c2229"/><path d="M22.4,-1.8 A0.5,0.5 0 1,0 23.3,-1.8 A0.5,0.5 0 1,0 22.4,-1.8 Z" fill="#f3e7cc"/></g><path d="M97.4,22 A2.6,2.6 0 1,0 102.6,22 A2.6,2.6 0 1,0 97.4,22 Z" fill="#f3e7cc" stroke="#1c2229" stroke-width="1.3" stroke-linecap="round" stroke-linejoin="round"/><path d="M104.2,33 A1.8,1.8 0 1,0 107.8,33 A1.8,1.8 0 1,0 104.2,33 Z" fill="#f3e7cc" stroke="#1c2229" stroke-width="1.3" stroke-linecap="round" stroke-linejoin="round"/><path d="M16,40 A2,2 0 1,0 20,40 A2,2 0 1,0 16,40 Z" fill="#f3e7cc" stroke="#1c2229" stroke-width="1.3" stroke-linecap="round" stroke-linejoin="round"/></svg>
